<svg xmlns="http://www.w3.org/2000/svg" xmlns:xlink="http://www.w3.org/1999/xlink" width="550" zoomAndPan="magnify" viewBox="0 0 412.5 308.250004" height="411" preserveAspectRatio="xMidYMid meet" version="1.0"><defs><g/><clipPath id="5567206ad2"><path d="M 0.25 0 L 411.75 0 L 411.75 307.5 L 0.25 307.5 Z M 0.25 0 " clip-rule="nonzero"/></clipPath><clipPath id="48a1efdef4"><path d="M 38.253906 120.21875 L 119.824219 120.21875 L 119.824219 201.789062 L 38.253906 201.789062 Z M 38.253906 120.21875 " clip-rule="nonzero"/></clipPath><clipPath id="6a94908a34"><path d="M 79.039062 120.21875 C 56.515625 120.21875 38.253906 138.480469 38.253906 161.003906 C 38.253906 183.53125 56.515625 201.789062 79.039062 201.789062 C 101.5625 201.789062 119.824219 183.53125 119.824219 161.003906 C 119.824219 138.480469 101.5625 120.21875 79.039062 120.21875 Z M 79.039062 120.21875 " clip-rule="nonzero"/></clipPath></defs><g clip-path="url(#5567206ad2)"><path fill="#ffffff" d="M 0.25 0 L 411.75 0 L 411.75 307.5 L 0.25 307.5 Z M 0.25 0 " fill-opacity="1" fill-rule="nonzero"/><path fill="#ffffff" d="M 0.25 0 L 411.75 0 L 411.75 307.5 L 0.25 307.5 Z M 0.25 0 " fill-opacity="1" fill-rule="nonzero"/></g><g clip-path="url(#48a1efdef4)"><g clip-path="url(#6a94908a34)"><path fill="#2ab4a7" d="M 38.253906 120.21875 L 119.824219 120.21875 L 119.824219 201.789062 L 38.253906 201.789062 Z M 38.253906 120.21875 " fill-opacity="1" fill-rule="nonzero"/></g></g><g fill="#696969" fill-opacity="1"><g transform="translate(126.836111, 187.23245)"><g><path d="M 2.484375 -26.578125 C 2.484375 -31.816406 3.613281 -36.488281 5.875 -40.59375 C 8.144531 -44.695312 11.304688 -47.890625 15.359375 -50.171875 C 19.421875 -52.460938 24.019531 -53.609375 29.15625 -53.609375 C 35.445312 -53.609375 40.832031 -51.945312 45.3125 -48.625 C 49.789062 -45.300781 52.785156 -40.773438 54.296875 -35.046875 L 40.09375 -35.046875 C 39.039062 -37.253906 37.546875 -38.9375 35.609375 -40.09375 C 33.671875 -41.25 31.46875 -41.828125 29 -41.828125 C 25.019531 -41.828125 21.796875 -40.441406 19.328125 -37.671875 C 16.859375 -34.910156 15.625 -31.210938 15.625 -26.578125 C 15.625 -21.953125 16.859375 -18.253906 19.328125 -15.484375 C 21.796875 -12.710938 25.019531 -11.328125 29 -11.328125 C 31.46875 -11.328125 33.671875 -11.90625 35.609375 -13.0625 C 37.546875 -14.21875 39.039062 -15.90625 40.09375 -18.125 L 54.296875 -18.125 C 52.785156 -12.382812 49.789062 -7.863281 45.3125 -4.5625 C 40.832031 -1.269531 35.445312 0.375 29.15625 0.375 C 24.019531 0.375 19.421875 -0.769531 15.359375 -3.0625 C 11.304688 -5.351562 8.144531 -8.535156 5.875 -12.609375 C 3.613281 -16.691406 2.484375 -21.347656 2.484375 -26.578125 Z M 2.484375 -26.578125 "/></g></g></g><g fill="#696969" fill-opacity="1"><g transform="translate(184.37968, 187.23245)"><g><path d="M 29.75 0.53125 C 24.769531 0.53125 20.203125 -0.625 16.046875 -2.9375 C 11.890625 -5.257812 8.585938 -8.492188 6.140625 -12.640625 C 3.703125 -16.796875 2.484375 -21.46875 2.484375 -26.65625 C 2.484375 -31.84375 3.703125 -36.5 6.140625 -40.625 C 8.585938 -44.75 11.890625 -47.96875 16.046875 -50.28125 C 20.203125 -52.601562 24.769531 -53.765625 29.75 -53.765625 C 34.738281 -53.765625 39.304688 -52.601562 43.453125 -50.28125 C 47.609375 -47.96875 50.878906 -44.75 53.265625 -40.625 C 55.660156 -36.5 56.859375 -31.84375 56.859375 -26.65625 C 56.859375 -21.46875 55.648438 -16.796875 53.234375 -12.640625 C 50.816406 -8.492188 47.546875 -5.257812 43.421875 -2.9375 C 39.296875 -0.625 34.738281 0.53125 29.75 0.53125 Z M 29.75 -11.25 C 33.976562 -11.25 37.363281 -12.65625 39.90625 -15.46875 C 42.445312 -18.289062 43.71875 -22.019531 43.71875 -26.65625 C 43.71875 -31.34375 42.445312 -35.082031 39.90625 -37.875 C 37.363281 -40.664062 33.976562 -42.0625 29.75 -42.0625 C 25.46875 -42.0625 22.054688 -40.675781 19.515625 -37.90625 C 16.972656 -35.132812 15.703125 -31.382812 15.703125 -26.65625 C 15.703125 -21.976562 16.972656 -18.238281 19.515625 -15.4375 C 22.054688 -12.644531 25.46875 -11.25 29.75 -11.25 Z M 29.75 -11.25 "/></g></g></g><g fill="#696969" fill-opacity="1"><g transform="translate(243.735641, 187.23245)"><g><path d="M 29.75 0.53125 C 24.769531 0.53125 20.203125 -0.625 16.046875 -2.9375 C 11.890625 -5.257812 8.585938 -8.492188 6.140625 -12.640625 C 3.703125 -16.796875 2.484375 -21.46875 2.484375 -26.65625 C 2.484375 -31.84375 3.703125 -36.5 6.140625 -40.625 C 8.585938 -44.75 11.890625 -47.96875 16.046875 -50.28125 C 20.203125 -52.601562 24.769531 -53.765625 29.75 -53.765625 C 34.738281 -53.765625 39.304688 -52.601562 43.453125 -50.28125 C 47.609375 -47.96875 50.878906 -44.75 53.265625 -40.625 C 55.660156 -36.5 56.859375 -31.84375 56.859375 -26.65625 C 56.859375 -21.46875 55.648438 -16.796875 53.234375 -12.640625 C 50.816406 -8.492188 47.546875 -5.257812 43.421875 -2.9375 C 39.296875 -0.625 34.738281 0.53125 29.75 0.53125 Z M 29.75 -11.25 C 33.976562 -11.25 37.363281 -12.65625 39.90625 -15.46875 C 42.445312 -18.289062 43.71875 -22.019531 43.71875 -26.65625 C 43.71875 -31.34375 42.445312 -35.082031 39.90625 -37.875 C 37.363281 -40.664062 33.976562 -42.0625 29.75 -42.0625 C 25.46875 -42.0625 22.054688 -40.675781 19.515625 -37.90625 C 16.972656 -35.132812 15.703125 -31.382812 15.703125 -26.65625 C 15.703125 -21.976562 16.972656 -18.238281 19.515625 -15.4375 C 22.054688 -12.644531 25.46875 -11.25 29.75 -11.25 Z M 29.75 -11.25 "/></g></g></g><g fill="#696969" fill-opacity="1"><g transform="translate(303.091603, 187.23245)"><g><path d="M 35.421875 0 L 17.59375 -23.40625 L 17.59375 0 L 4.6875 0 L 4.6875 -53.015625 L 17.59375 -53.015625 L 17.59375 -29.75 L 35.265625 -53.015625 L 50.4375 -53.015625 L 29.90625 -27.03125 L 51.203125 0 Z M 35.421875 0 "/></g></g></g><g fill="#ff9d02" fill-opacity="1"><g transform="translate(355.726836, 187.23245)"><g><path d="M 10.71875 0.609375 C 8.457031 0.609375 6.609375 -0.0546875 5.171875 -1.390625 C 3.734375 -2.722656 3.015625 -4.375 3.015625 -6.34375 C 3.015625 -8.351562 3.734375 -10.035156 5.171875 -11.390625 C 6.609375 -12.753906 8.457031 -13.4375 10.71875 -13.4375 C 12.9375 -13.4375 14.757812 -12.753906 16.1875 -11.390625 C 17.625 -10.035156 18.34375 -8.351562 18.34375 -6.34375 C 18.34375 -4.375 17.625 -2.722656 16.1875 -1.390625 C 14.757812 -0.0546875 12.9375 0.609375 10.71875 0.609375 Z M 10.71875 0.609375 "/></g></g></g><g fill="#f9f8f4" fill-opacity="1"><g transform="translate(50.397979, 185.684865)"><g><path d="M 54.671875 -26.78125 C 54.671875 -25.289062 54.578125 -23.738281 54.390625 -22.125 L 18.40625 -22.125 C 18.65625 -18.90625 19.691406 -16.441406 21.515625 -14.734375 C 23.347656 -13.035156 25.597656 -12.1875 28.265625 -12.1875 C 32.234375 -12.1875 34.992188 -13.859375 36.546875 -17.203125 L 53.46875 -17.203125 C 52.601562 -13.796875 51.035156 -10.726562 48.765625 -8 C 46.503906 -5.269531 43.664062 -3.128906 40.25 -1.578125 C 36.84375 -0.0234375 33.035156 0.75 28.828125 0.75 C 23.742188 0.75 19.21875 -0.332031 15.25 -2.5 C 11.28125 -4.675781 8.179688 -7.78125 5.953125 -11.8125 C 3.722656 -15.84375 2.609375 -20.550781 2.609375 -25.9375 C 2.609375 -31.332031 3.707031 -36.046875 5.90625 -40.078125 C 8.101562 -44.109375 11.1875 -47.207031 15.15625 -49.375 C 19.125 -51.539062 23.679688 -52.625 28.828125 -52.625 C 33.847656 -52.625 38.3125 -51.570312 42.21875 -49.46875 C 46.125 -47.363281 49.175781 -44.359375 51.375 -40.453125 C 53.570312 -36.546875 54.671875 -31.988281 54.671875 -26.78125 Z M 38.40625 -30.96875 C 38.40625 -33.695312 37.472656 -35.863281 35.609375 -37.46875 C 33.753906 -39.082031 31.429688 -39.890625 28.640625 -39.890625 C 25.972656 -39.890625 23.722656 -39.113281 21.890625 -37.5625 C 20.066406 -36.007812 18.9375 -33.8125 18.5 -30.96875 Z M 38.40625 -30.96875 "/></g></g></g></svg>