<svg xmlns="http://www.w3.org/2000/svg" xmlns:xlink="http://www.w3.org/1999/xlink" width="550" zoomAndPan="magnify" viewBox="0 0 412.5 308.250004" height="411" preserveAspectRatio="xMidYMid meet" version="1.0"><defs><g/><clipPath id="92125eb44e"><path d="M 0.25 0 L 411.75 0 L 411.75 307.5 L 0.25 307.5 Z M 0.25 0 " clip-rule="nonzero"/></clipPath><clipPath id="b92555f65a"><path d="M 56.648438 150 L 155.40625 150 L 155.40625 193.445312 L 56.648438 193.445312 Z M 56.648438 150 " clip-rule="nonzero"/></clipPath><clipPath id="d60ef18ec8"><path d="M 120 114.140625 L 133 114.140625 L 133 169 L 120 169 Z M 120 114.140625 " clip-rule="nonzero"/></clipPath></defs><g clip-path="url(#92125eb44e)"><path fill="#ffffff" d="M 0.25 0 L 411.75 0 L 411.75 307.5 L 0.25 307.5 Z M 0.25 0 " fill-opacity="1" fill-rule="nonzero"/><path fill="#ffffff" d="M 0.25 0 L 411.75 0 L 411.75 307.5 L 0.25 307.5 Z M 0.25 0 " fill-opacity="1" fill-rule="nonzero"/></g><g clip-path="url(#b92555f65a)"><path fill="#049c9c" d="M 154.855469 150.789062 L 142.972656 151.003906 C 142.414062 151.015625 142.09375 151.640625 142.414062 152.097656 L 144.253906 154.726562 C 144.277344 154.761719 144.269531 154.808594 144.234375 154.835938 L 104.804688 182.847656 C 104.753906 182.882812 104.683594 182.847656 104.683594 182.785156 L 104.683594 161.441406 C 104.683594 161.160156 104.535156 160.898438 104.292969 160.753906 C 104.050781 160.609375 103.75 160.605469 103.503906 160.738281 L 57.089844 185.976562 C 56.902344 186.078125 56.765625 186.25 56.707031 186.453125 C 56.644531 186.65625 56.667969 186.875 56.769531 187.058594 L 58.753906 190.707031 C 58.964844 191.09375 59.449219 191.238281 59.835938 191.027344 L 98.820312 169.828125 C 98.871094 169.800781 98.933594 169.839844 98.933594 169.898438 L 98.933594 192.46875 C 98.933594 192.699219 99.003906 192.929688 99.167969 193.089844 C 99.328125 193.246094 99.53125 193.324219 99.730469 193.324219 C 99.894531 193.324219 100.058594 193.273438 100.195312 193.175781 L 147.53125 159.546875 C 147.566406 159.519531 147.613281 159.53125 147.640625 159.566406 L 150.023438 162.972656 C 150.339844 163.429688 151.042969 163.34375 151.242188 162.824219 L 155.519531 151.734375 C 155.695312 151.273438 155.351562 150.777344 154.855469 150.789062 " fill-opacity="1" fill-rule="nonzero"/></g><path fill="#049c9c" d="M 86.441406 136.332031 L 86.441406 167.605469 C 86.441406 167.632812 86.425781 167.660156 86.402344 167.675781 L 75.140625 173.800781 C 75.089844 173.828125 75.027344 173.789062 75.027344 173.730469 L 75.027344 136.332031 C 75.027344 136.289062 75.0625 136.253906 75.105469 136.253906 L 86.367188 136.253906 C 86.410156 136.253906 86.441406 136.289062 86.441406 136.332031 " fill-opacity="1" fill-rule="nonzero"/><g clip-path="url(#d60ef18ec8)"><path fill="#049c9c" d="M 132.097656 114.238281 L 132.097656 160.871094 C 132.097656 160.894531 132.085938 160.917969 132.066406 160.933594 L 120.804688 168.933594 C 120.753906 168.96875 120.683594 168.933594 120.683594 168.871094 L 120.683594 114.238281 C 120.683594 114.195312 120.71875 114.160156 120.761719 114.160156 L 132.019531 114.160156 C 132.0625 114.160156 132.097656 114.195312 132.097656 114.238281 " fill-opacity="1" fill-rule="nonzero"/></g><path fill="#049c9c" d="M 116.132812 142.714844 L 116.132812 172.210938 C 116.132812 172.234375 116.121094 172.261719 116.101562 172.273438 L 106.882812 178.824219 C 106.832031 178.859375 106.761719 178.824219 106.761719 178.761719 L 106.761719 161.441406 C 106.761719 160.433594 106.21875 159.484375 105.355469 158.972656 C 105.167969 158.863281 104.976562 158.773438 104.773438 158.710938 C 104.742188 158.699219 104.722656 158.671875 104.722656 158.636719 L 104.722656 142.714844 C 104.722656 142.671875 104.757812 142.636719 104.800781 142.636719 L 116.058594 142.636719 C 116.097656 142.636719 116.132812 142.671875 116.132812 142.714844 " fill-opacity="1" fill-rule="nonzero"/><path fill="#049c9c" d="M 101.289062 123.449219 L 101.289062 159.535156 C 101.289062 159.5625 101.273438 159.589844 101.25 159.601562 L 89.992188 165.726562 C 89.9375 165.753906 89.875 165.714844 89.875 165.65625 L 89.875 123.449219 C 89.875 123.40625 89.910156 123.371094 89.953125 123.371094 L 101.210938 123.371094 C 101.253906 123.371094 101.289062 123.40625 101.289062 123.449219 " fill-opacity="1" fill-rule="nonzero"/><g fill="#000000" fill-opacity="1"><g transform="translate(160.723283, 149.142842)"><g><path d="M 8.640625 -24.6875 L 8.640625 -16.109375 L 19.5 -16.109375 L 19.5 -11.796875 L 8.640625 -11.796875 L 8.640625 0 L 3.21875 0 L 3.21875 -28.96875 L 21.5 -28.96875 L 21.5 -24.6875 Z M 8.640625 -24.6875 "/></g></g></g><g fill="#000000" fill-opacity="1"><g transform="translate(183.403077, 149.142842)"><g><path d="M 7.578125 -20.5625 L 7.578125 0 L 2.609375 0 L 2.609375 -20.5625 Z M 8.25 -26.546875 C 8.25 -26.117188 8.160156 -25.71875 7.984375 -25.34375 C 7.816406 -24.96875 7.585938 -24.640625 7.296875 -24.359375 C 7.015625 -24.085938 6.679688 -23.867188 6.296875 -23.703125 C 5.910156 -23.535156 5.492188 -23.453125 5.046875 -23.453125 C 4.617188 -23.453125 4.210938 -23.535156 3.828125 -23.703125 C 3.453125 -23.867188 3.125 -24.085938 2.84375 -24.359375 C 2.5625 -24.640625 2.335938 -24.96875 2.171875 -25.34375 C 2.003906 -25.71875 1.921875 -26.117188 1.921875 -26.546875 C 1.921875 -26.992188 2.003906 -27.410156 2.171875 -27.796875 C 2.335938 -28.179688 2.5625 -28.515625 2.84375 -28.796875 C 3.125 -29.078125 3.453125 -29.300781 3.828125 -29.46875 C 4.210938 -29.632812 4.617188 -29.71875 5.046875 -29.71875 C 5.492188 -29.71875 5.910156 -29.632812 6.296875 -29.46875 C 6.679688 -29.300781 7.015625 -29.078125 7.296875 -28.796875 C 7.585938 -28.515625 7.816406 -28.179688 7.984375 -27.796875 C 8.160156 -27.410156 8.25 -26.992188 8.25 -26.546875 Z M 8.25 -26.546875 "/></g></g></g><g fill="#000000" fill-opacity="1"><g transform="translate(193.580936, 149.142842)"><g><path d="M 7.078125 -18.03125 C 7.484375 -18.445312 7.914062 -18.832031 8.375 -19.1875 C 8.84375 -19.539062 9.332031 -19.835938 9.84375 -20.078125 C 10.363281 -20.328125 10.914062 -20.519531 11.5 -20.65625 C 12.09375 -20.800781 12.734375 -20.875 13.421875 -20.875 C 14.546875 -20.875 15.539062 -20.679688 16.40625 -20.296875 C 17.28125 -19.921875 18.003906 -19.390625 18.578125 -18.703125 C 19.160156 -18.015625 19.601562 -17.191406 19.90625 -16.234375 C 20.207031 -15.285156 20.359375 -14.234375 20.359375 -13.078125 L 20.359375 0 L 15.40625 0 L 15.40625 -13.078125 C 15.40625 -14.335938 15.117188 -15.3125 14.546875 -16 C 13.972656 -16.6875 13.097656 -17.03125 11.921875 -17.03125 C 11.066406 -17.03125 10.265625 -16.835938 9.515625 -16.453125 C 8.765625 -16.066406 8.054688 -15.539062 7.390625 -14.875 L 7.390625 0 L 2.4375 0 L 2.4375 -20.5625 L 5.46875 -20.5625 C 6.113281 -20.5625 6.535156 -20.257812 6.734375 -19.65625 Z M 7.078125 -18.03125 "/></g></g></g><g fill="#000000" fill-opacity="1"><g transform="translate(216.180589, 149.142842)"><g><path d="M 7.078125 -18.03125 C 7.484375 -18.445312 7.914062 -18.832031 8.375 -19.1875 C 8.84375 -19.539062 9.332031 -19.835938 9.84375 -20.078125 C 10.363281 -20.328125 10.914062 -20.519531 11.5 -20.65625 C 12.09375 -20.800781 12.734375 -20.875 13.421875 -20.875 C 14.546875 -20.875 15.539062 -20.679688 16.40625 -20.296875 C 17.28125 -19.921875 18.003906 -19.390625 18.578125 -18.703125 C 19.160156 -18.015625 19.601562 -17.191406 19.90625 -16.234375 C 20.207031 -15.285156 20.359375 -14.234375 20.359375 -13.078125 L 20.359375 0 L 15.40625 0 L 15.40625 -13.078125 C 15.40625 -14.335938 15.117188 -15.3125 14.546875 -16 C 13.972656 -16.6875 13.097656 -17.03125 11.921875 -17.03125 C 11.066406 -17.03125 10.265625 -16.835938 9.515625 -16.453125 C 8.765625 -16.066406 8.054688 -15.539062 7.390625 -14.875 L 7.390625 0 L 2.4375 0 L 2.4375 -20.5625 L 5.46875 -20.5625 C 6.113281 -20.5625 6.535156 -20.257812 6.734375 -19.65625 Z M 7.078125 -18.03125 "/></g></g></g><g fill="#000000" fill-opacity="1"><g transform="translate(160.723283, 189.213187)"><g><path d="M 18.53125 -10.9375 L 15.015625 -20.578125 C 14.835938 -21.003906 14.65625 -21.507812 14.46875 -22.09375 C 14.28125 -22.6875 14.09375 -23.320312 13.90625 -24 C 13.726562 -23.320312 13.546875 -22.6875 13.359375 -22.09375 C 13.171875 -21.5 12.992188 -20.984375 12.828125 -20.546875 L 9.3125 -10.9375 Z M 28.0625 0 L 23.890625 0 C 23.421875 0 23.035156 -0.113281 22.734375 -0.34375 C 22.441406 -0.582031 22.222656 -0.875 22.078125 -1.21875 L 19.921875 -7.140625 L 7.921875 -7.140625 L 5.75 -1.21875 C 5.644531 -0.914062 5.4375 -0.632812 5.125 -0.375 C 4.820312 -0.125 4.441406 0 3.984375 0 L -0.21875 0 L 11.1875 -28.96875 L 16.671875 -28.96875 Z M 28.0625 0 "/></g></g></g><g fill="#000000" fill-opacity="1"><g transform="translate(188.552112, 189.213187)"><g><path d="M 17.171875 -16.21875 C 17.023438 -16.03125 16.878906 -15.878906 16.734375 -15.765625 C 16.597656 -15.660156 16.394531 -15.609375 16.125 -15.609375 C 15.875 -15.609375 15.628906 -15.6875 15.390625 -15.84375 C 15.148438 -16 14.863281 -16.171875 14.53125 -16.359375 C 14.195312 -16.554688 13.796875 -16.726562 13.328125 -16.875 C 12.867188 -17.03125 12.300781 -17.109375 11.625 -17.109375 C 10.75 -17.109375 9.984375 -16.953125 9.328125 -16.640625 C 8.679688 -16.328125 8.140625 -15.875 7.703125 -15.28125 C 7.265625 -14.695312 6.9375 -13.988281 6.71875 -13.15625 C 6.507812 -12.320312 6.40625 -11.375 6.40625 -10.3125 C 6.40625 -9.21875 6.519531 -8.242188 6.75 -7.390625 C 6.988281 -6.535156 7.328125 -5.816406 7.765625 -5.234375 C 8.210938 -4.660156 8.75 -4.222656 9.375 -3.921875 C 10 -3.617188 10.707031 -3.46875 11.5 -3.46875 C 12.289062 -3.46875 12.925781 -3.5625 13.40625 -3.75 C 13.894531 -3.945312 14.304688 -4.160156 14.640625 -4.390625 C 14.984375 -4.628906 15.273438 -4.84375 15.515625 -5.03125 C 15.765625 -5.226562 16.046875 -5.328125 16.359375 -5.328125 C 16.753906 -5.328125 17.050781 -5.175781 17.25 -4.875 L 18.671875 -3.0625 C 18.128906 -2.425781 17.535156 -1.890625 16.890625 -1.453125 C 16.253906 -1.015625 15.585938 -0.664062 14.890625 -0.40625 C 14.203125 -0.144531 13.492188 0.0351562 12.765625 0.140625 C 12.046875 0.242188 11.320312 0.296875 10.59375 0.296875 C 9.332031 0.296875 8.140625 0.0625 7.015625 -0.40625 C 5.890625 -0.882812 4.90625 -1.578125 4.0625 -2.484375 C 3.226562 -3.390625 2.566406 -4.5 2.078125 -5.8125 C 1.585938 -7.132812 1.34375 -8.632812 1.34375 -10.3125 C 1.34375 -11.820312 1.554688 -13.222656 1.984375 -14.515625 C 2.421875 -15.804688 3.0625 -16.921875 3.90625 -17.859375 C 4.75 -18.804688 5.789062 -19.546875 7.03125 -20.078125 C 8.269531 -20.609375 9.703125 -20.875 11.328125 -20.875 C 12.859375 -20.875 14.203125 -20.625 15.359375 -20.125 C 16.515625 -19.632812 17.550781 -18.929688 18.46875 -18.015625 Z M 17.171875 -16.21875 "/></g></g></g><g fill="#000000" fill-opacity="1"><g transform="translate(207.865999, 189.213187)"><g><path d="M 13.3125 -8.78125 C 11.875 -8.707031 10.664062 -8.582031 9.6875 -8.40625 C 8.71875 -8.226562 7.9375 -8 7.34375 -7.71875 C 6.757812 -7.4375 6.34375 -7.109375 6.09375 -6.734375 C 5.84375 -6.359375 5.71875 -5.953125 5.71875 -5.515625 C 5.71875 -4.640625 5.972656 -4.015625 6.484375 -3.640625 C 6.992188 -3.273438 7.664062 -3.09375 8.5 -3.09375 C 9.507812 -3.09375 10.382812 -3.273438 11.125 -3.640625 C 11.875 -4.003906 12.601562 -4.5625 13.3125 -5.3125 Z M 1.96875 -17.6875 C 4.332031 -19.851562 7.175781 -20.9375 10.5 -20.9375 C 11.695312 -20.9375 12.769531 -20.738281 13.71875 -20.34375 C 14.675781 -19.957031 15.476562 -19.410156 16.125 -18.703125 C 16.78125 -18.003906 17.28125 -17.164062 17.625 -16.1875 C 17.96875 -15.21875 18.140625 -14.148438 18.140625 -12.984375 L 18.140625 0 L 15.890625 0 C 15.421875 0 15.054688 -0.0664062 14.796875 -0.203125 C 14.546875 -0.347656 14.347656 -0.632812 14.203125 -1.0625 L 13.765625 -2.546875 C 13.242188 -2.078125 12.734375 -1.664062 12.234375 -1.3125 C 11.742188 -0.957031 11.234375 -0.660156 10.703125 -0.421875 C 10.171875 -0.179688 9.597656 0 8.984375 0.125 C 8.378906 0.257812 7.707031 0.328125 6.96875 0.328125 C 6.101562 0.328125 5.300781 0.210938 4.5625 -0.015625 C 3.832031 -0.253906 3.195312 -0.609375 2.65625 -1.078125 C 2.125 -1.546875 1.710938 -2.128906 1.421875 -2.828125 C 1.128906 -3.523438 0.984375 -4.332031 0.984375 -5.25 C 0.984375 -5.769531 1.066406 -6.285156 1.234375 -6.796875 C 1.410156 -7.316406 1.695312 -7.8125 2.09375 -8.28125 C 2.488281 -8.75 3 -9.1875 3.625 -9.59375 C 4.25 -10.007812 5.019531 -10.367188 5.9375 -10.671875 C 6.851562 -10.984375 7.921875 -11.234375 9.140625 -11.421875 C 10.359375 -11.617188 11.75 -11.738281 13.3125 -11.78125 L 13.3125 -12.984375 C 13.3125 -14.359375 13.015625 -15.375 12.421875 -16.03125 C 11.835938 -16.695312 10.988281 -17.03125 9.875 -17.03125 C 9.070312 -17.03125 8.40625 -16.9375 7.875 -16.75 C 7.351562 -16.5625 6.890625 -16.347656 6.484375 -16.109375 C 6.085938 -15.878906 5.722656 -15.671875 5.390625 -15.484375 C 5.066406 -15.296875 4.707031 -15.203125 4.3125 -15.203125 C 3.957031 -15.203125 3.660156 -15.289062 3.421875 -15.46875 C 3.179688 -15.65625 2.988281 -15.867188 2.84375 -16.109375 Z M 1.96875 -17.6875 "/></g></g></g><g fill="#000000" fill-opacity="1"><g transform="translate(228.201681, 189.213187)"><g><path d="M 15.34375 -15.3125 C 14.789062 -15.988281 14.179688 -16.46875 13.515625 -16.75 C 12.859375 -17.03125 12.144531 -17.171875 11.375 -17.171875 C 10.632812 -17.171875 9.960938 -17.03125 9.359375 -16.75 C 8.753906 -16.46875 8.238281 -16.039062 7.8125 -15.46875 C 7.382812 -14.90625 7.054688 -14.1875 6.828125 -13.3125 C 6.609375 -12.4375 6.5 -11.40625 6.5 -10.21875 C 6.5 -9.019531 6.59375 -8 6.78125 -7.15625 C 6.976562 -6.320312 7.253906 -5.640625 7.609375 -5.109375 C 7.972656 -4.585938 8.414062 -4.207031 8.9375 -3.96875 C 9.457031 -3.738281 10.039062 -3.625 10.6875 -3.625 C 11.707031 -3.625 12.578125 -3.835938 13.296875 -4.265625 C 14.023438 -4.691406 14.707031 -5.300781 15.34375 -6.09375 Z M 20.296875 -29.78125 L 20.296875 0 L 17.28125 0 C 16.625 0 16.207031 -0.300781 16.03125 -0.90625 L 15.609375 -2.890625 C 14.785156 -1.941406 13.832031 -1.171875 12.75 -0.578125 C 11.675781 0.00390625 10.425781 0.296875 9 0.296875 C 7.875 0.296875 6.84375 0.0625 5.90625 -0.40625 C 4.976562 -0.875 4.175781 -1.550781 3.5 -2.4375 C 2.820312 -3.320312 2.296875 -4.414062 1.921875 -5.71875 C 1.554688 -7.03125 1.375 -8.53125 1.375 -10.21875 C 1.375 -11.738281 1.582031 -13.15625 2 -14.46875 C 2.414062 -15.78125 3.007812 -16.914062 3.78125 -17.875 C 4.5625 -18.832031 5.492188 -19.582031 6.578125 -20.125 C 7.660156 -20.664062 8.875 -20.9375 10.21875 -20.9375 C 11.363281 -20.9375 12.34375 -20.753906 13.15625 -20.390625 C 13.976562 -20.035156 14.707031 -19.550781 15.34375 -18.9375 L 15.34375 -29.78125 Z M 20.296875 -29.78125 "/></g></g></g><g fill="#000000" fill-opacity="1"><g transform="translate(250.941577, 189.213187)"><g><path d="M 15.6875 -12.640625 C 15.6875 -13.285156 15.597656 -13.890625 15.421875 -14.453125 C 15.242188 -15.023438 14.972656 -15.523438 14.609375 -15.953125 C 14.242188 -16.378906 13.785156 -16.710938 13.234375 -16.953125 C 12.679688 -17.203125 12.035156 -17.328125 11.296875 -17.328125 C 9.867188 -17.328125 8.742188 -16.921875 7.921875 -16.109375 C 7.097656 -15.296875 6.578125 -14.140625 6.359375 -12.640625 Z M 6.25 -9.65625 C 6.332031 -8.601562 6.519531 -7.691406 6.8125 -6.921875 C 7.101562 -6.148438 7.488281 -5.515625 7.96875 -5.015625 C 8.457031 -4.515625 9.03125 -4.140625 9.6875 -3.890625 C 10.351562 -3.648438 11.085938 -3.53125 11.890625 -3.53125 C 12.679688 -3.53125 13.367188 -3.625 13.953125 -3.8125 C 14.535156 -4 15.039062 -4.203125 15.46875 -4.421875 C 15.90625 -4.648438 16.285156 -4.859375 16.609375 -5.046875 C 16.941406 -5.234375 17.265625 -5.328125 17.578125 -5.328125 C 17.992188 -5.328125 18.300781 -5.175781 18.5 -4.875 L 19.921875 -3.0625 C 19.367188 -2.425781 18.75 -1.890625 18.0625 -1.453125 C 17.382812 -1.015625 16.675781 -0.664062 15.9375 -0.40625 C 15.195312 -0.144531 14.441406 0.0351562 13.671875 0.140625 C 12.910156 0.242188 12.164062 0.296875 11.4375 0.296875 C 10.007812 0.296875 8.679688 0.0625 7.453125 -0.40625 C 6.222656 -0.882812 5.15625 -1.585938 4.25 -2.515625 C 3.34375 -3.441406 2.628906 -4.585938 2.109375 -5.953125 C 1.585938 -7.328125 1.328125 -8.914062 1.328125 -10.71875 C 1.328125 -12.125 1.550781 -13.441406 2 -14.671875 C 2.457031 -15.910156 3.109375 -16.988281 3.953125 -17.90625 C 4.804688 -18.820312 5.84375 -19.546875 7.0625 -20.078125 C 8.28125 -20.609375 9.660156 -20.875 11.203125 -20.875 C 12.492188 -20.875 13.6875 -20.664062 14.78125 -20.25 C 15.882812 -19.84375 16.828125 -19.238281 17.609375 -18.4375 C 18.398438 -17.644531 19.019531 -16.671875 19.46875 -15.515625 C 19.914062 -14.359375 20.140625 -13.039062 20.140625 -11.5625 C 20.140625 -10.8125 20.054688 -10.304688 19.890625 -10.046875 C 19.734375 -9.785156 19.429688 -9.65625 18.984375 -9.65625 Z M 6.25 -9.65625 "/></g></g></g><g fill="#000000" fill-opacity="1"><g transform="translate(272.339127, 189.213187)"><g><path d="M 2.4375 0 L 2.4375 -20.5625 L 5.46875 -20.5625 C 6.113281 -20.5625 6.535156 -20.257812 6.734375 -19.65625 L 7.046875 -18.140625 C 7.410156 -18.535156 7.789062 -18.898438 8.1875 -19.234375 C 8.582031 -19.566406 9.003906 -19.851562 9.453125 -20.09375 C 9.898438 -20.332031 10.378906 -20.519531 10.890625 -20.65625 C 11.398438 -20.800781 11.960938 -20.875 12.578125 -20.875 C 13.878906 -20.875 14.945312 -20.523438 15.78125 -19.828125 C 16.613281 -19.128906 17.238281 -18.195312 17.65625 -17.03125 C 17.976562 -17.71875 18.378906 -18.300781 18.859375 -18.78125 C 19.335938 -19.269531 19.863281 -19.664062 20.4375 -19.96875 C 21.007812 -20.28125 21.617188 -20.507812 22.265625 -20.65625 C 22.921875 -20.800781 23.578125 -20.875 24.234375 -20.875 C 25.367188 -20.875 26.375 -20.703125 27.25 -20.359375 C 28.132812 -20.015625 28.875 -19.503906 29.46875 -18.828125 C 30.070312 -18.160156 30.53125 -17.347656 30.84375 -16.390625 C 31.164062 -15.429688 31.328125 -14.328125 31.328125 -13.078125 L 31.328125 0 L 26.375 0 L 26.375 -13.078125 C 26.375 -14.390625 26.082031 -15.375 25.5 -16.03125 C 24.925781 -16.695312 24.085938 -17.03125 22.984375 -17.03125 C 22.472656 -17.03125 22 -16.941406 21.5625 -16.765625 C 21.132812 -16.597656 20.753906 -16.347656 20.421875 -16.015625 C 20.097656 -15.691406 19.84375 -15.28125 19.65625 -14.78125 C 19.46875 -14.289062 19.375 -13.722656 19.375 -13.078125 L 19.375 0 L 14.40625 0 L 14.40625 -13.078125 C 14.40625 -14.460938 14.128906 -15.46875 13.578125 -16.09375 C 13.023438 -16.71875 12.210938 -17.03125 11.140625 -17.03125 C 10.421875 -17.03125 9.75 -16.851562 9.125 -16.5 C 8.507812 -16.144531 7.929688 -15.660156 7.390625 -15.046875 L 7.390625 0 Z M 2.4375 0 "/></g></g></g><g fill="#000000" fill-opacity="1"><g transform="translate(305.898016, 189.213187)"><g><path d="M 21.125 -20.5625 L 9.921875 5.65625 C 9.773438 6 9.582031 6.257812 9.34375 6.4375 C 9.113281 6.625 8.757812 6.71875 8.28125 6.71875 L 4.59375 6.71875 L 8.4375 -1.546875 L 0.125 -20.5625 L 4.46875 -20.5625 C 4.851562 -20.5625 5.15625 -20.46875 5.375 -20.28125 C 5.601562 -20.09375 5.769531 -19.878906 5.875 -19.640625 L 10.234375 -8.984375 C 10.378906 -8.617188 10.503906 -8.253906 10.609375 -7.890625 C 10.710938 -7.535156 10.8125 -7.171875 10.90625 -6.796875 C 11.019531 -7.171875 11.132812 -7.539062 11.25 -7.90625 C 11.375 -8.269531 11.507812 -8.632812 11.65625 -9 L 15.796875 -19.640625 C 15.898438 -19.910156 16.070312 -20.128906 16.3125 -20.296875 C 16.5625 -20.472656 16.84375 -20.5625 17.15625 -20.5625 Z M 21.125 -20.5625 "/></g></g></g></svg>