<svg xmlns="http://www.w3.org/2000/svg" xmlns:xlink="http://www.w3.org/1999/xlink" width="550" zoomAndPan="magnify" viewBox="0 0 412.5 308.250004" height="411" preserveAspectRatio="xMidYMid meet" version="1.0"><defs><g/><clipPath id="e1597f7908"><path d="M 0.25 0 L 411.75 0 L 411.75 307.5 L 0.25 307.5 Z M 0.25 0 " clip-rule="nonzero"/></clipPath></defs><g clip-path="url(#e1597f7908)"><path fill="#ffffff" d="M 0.25 0 L 411.75 0 L 411.75 307.5 L 0.25 307.5 Z M 0.25 0 " fill-opacity="1" fill-rule="nonzero"/><path fill="#000000" d="M 0.25 0 L 411.75 0 L 411.75 307.5 L 0.25 307.5 Z M 0.25 0 " fill-opacity="1" fill-rule="nonzero"/></g><g fill="#e03a43" fill-opacity="1"><g transform="translate(126.151133, 139.552256)"><g><path d="M 46.578125 -24.96875 L 46.578125 -4.8125 C 44.054688 -2.957031 41.363281 -1.597656 38.5 -0.734375 C 35.644531 0.117188 32.585938 0.546875 29.328125 0.546875 C 25.265625 0.546875 21.585938 -0.0820312 18.296875 -1.34375 C 15.003906 -2.601562 12.191406 -4.359375 9.859375 -6.609375 C 7.535156 -8.859375 5.738281 -11.539062 4.46875 -14.65625 C 3.207031 -17.78125 2.578125 -21.191406 2.578125 -24.890625 C 2.578125 -28.628906 3.1875 -32.0625 4.40625 -35.1875 C 5.625 -38.3125 7.351562 -41 9.59375 -43.25 C 11.832031 -45.5 14.546875 -47.242188 17.734375 -48.484375 C 20.921875 -49.722656 24.5 -50.34375 28.46875 -50.34375 C 30.488281 -50.34375 32.375 -50.179688 34.125 -49.859375 C 35.882812 -49.535156 37.515625 -49.09375 39.015625 -48.53125 C 40.523438 -47.96875 41.898438 -47.285156 43.140625 -46.484375 C 44.378906 -45.679688 45.515625 -44.796875 46.546875 -43.828125 L 43.890625 -39.625 C 43.484375 -38.957031 42.945312 -38.550781 42.28125 -38.40625 C 41.613281 -38.257812 40.890625 -38.425781 40.109375 -38.90625 C 39.347656 -39.34375 38.585938 -39.78125 37.828125 -40.21875 C 37.078125 -40.65625 36.234375 -41.03125 35.296875 -41.34375 C 34.367188 -41.664062 33.328125 -41.929688 32.171875 -42.140625 C 31.015625 -42.347656 29.675781 -42.453125 28.15625 -42.453125 C 25.707031 -42.453125 23.488281 -42.035156 21.5 -41.203125 C 19.507812 -40.378906 17.816406 -39.195312 16.421875 -37.65625 C 15.023438 -36.125 13.945312 -34.28125 13.1875 -32.125 C 12.425781 -29.96875 12.046875 -27.554688 12.046875 -24.890625 C 12.046875 -22.046875 12.453125 -19.503906 13.265625 -17.265625 C 14.085938 -15.023438 15.238281 -13.128906 16.71875 -11.578125 C 18.195312 -10.035156 19.976562 -8.851562 22.0625 -8.03125 C 24.15625 -7.21875 26.488281 -6.8125 29.0625 -6.8125 C 30.894531 -6.8125 32.535156 -7.003906 33.984375 -7.390625 C 35.429688 -7.785156 36.84375 -8.316406 38.21875 -8.984375 L 38.21875 -18 L 31.953125 -18 C 31.359375 -18 30.894531 -18.164062 30.5625 -18.5 C 30.226562 -18.832031 30.0625 -19.242188 30.0625 -19.734375 L 30.0625 -24.96875 Z M 46.578125 -24.96875 "/></g></g></g><g fill="#e03a43" fill-opacity="1"><g transform="translate(176.140643, 139.552256)"><g><path d="M 26.921875 -19.28125 L 26.921875 0 L 17.703125 0 L 17.703125 -19.28125 L -0.453125 -49.78125 L 7.71875 -49.78125 C 8.519531 -49.78125 9.15625 -49.582031 9.625 -49.1875 C 10.09375 -48.800781 10.488281 -48.3125 10.8125 -47.71875 L 19.90625 -31.09375 C 20.425781 -30.101562 20.882812 -29.171875 21.28125 -28.296875 C 21.6875 -27.429688 22.050781 -26.5625 22.375 -25.6875 C 22.675781 -26.5625 23.019531 -27.429688 23.40625 -28.296875 C 23.800781 -29.171875 24.25 -30.101562 24.75 -31.09375 L 33.8125 -47.71875 C 34.0625 -48.226562 34.4375 -48.695312 34.9375 -49.125 C 35.445312 -49.5625 36.09375 -49.78125 36.875 -49.78125 L 45.0625 -49.78125 Z M 26.921875 -19.28125 "/></g></g></g><g fill="#e03a43" fill-opacity="1"><g transform="translate(220.759382, 139.552256)"><g><path d="M 59.53125 -49.78125 L 59.53125 0 L 51.375 0 L 51.375 -32.15625 C 51.375 -33.4375 51.441406 -34.828125 51.578125 -36.328125 L 36.53125 -8.0625 C 35.820312 -6.707031 34.734375 -6.03125 33.265625 -6.03125 L 31.953125 -6.03125 C 30.484375 -6.03125 29.394531 -6.707031 28.6875 -8.0625 L 13.46875 -36.421875 C 13.53125 -35.671875 13.582031 -34.925781 13.625 -34.1875 C 13.675781 -33.457031 13.703125 -32.78125 13.703125 -32.15625 L 13.703125 0 L 5.546875 0 L 5.546875 -49.78125 L 12.53125 -49.78125 C 12.945312 -49.78125 13.300781 -49.769531 13.59375 -49.75 C 13.894531 -49.726562 14.164062 -49.671875 14.40625 -49.578125 C 14.644531 -49.484375 14.863281 -49.332031 15.0625 -49.125 C 15.257812 -48.925781 15.445312 -48.65625 15.625 -48.3125 L 30.546875 -20.65625 C 30.929688 -19.925781 31.289062 -19.171875 31.625 -18.390625 C 31.957031 -17.609375 32.285156 -16.800781 32.609375 -15.96875 C 32.929688 -16.820312 33.265625 -17.644531 33.609375 -18.4375 C 33.953125 -19.226562 34.316406 -19.992188 34.703125 -20.734375 L 49.40625 -48.3125 C 49.59375 -48.65625 49.785156 -48.925781 49.984375 -49.125 C 50.191406 -49.332031 50.414062 -49.484375 50.65625 -49.578125 C 50.90625 -49.671875 51.175781 -49.726562 51.46875 -49.75 C 51.769531 -49.769531 52.128906 -49.78125 52.546875 -49.78125 Z M 59.53125 -49.78125 "/></g></g></g><g fill="#ffffff" fill-opacity="1"><g transform="translate(96.626101, 198.402042)"><g><path d="M 31.6875 -33.203125 L 31.6875 0 L 25.484375 0 L 25.484375 -14.515625 L 9.890625 -14.515625 L 9.890625 0 L 3.703125 0 L 3.703125 -33.203125 L 9.890625 -33.203125 L 9.890625 -18.921875 L 25.484375 -18.921875 L 25.484375 -33.203125 Z M 31.6875 -33.203125 "/></g></g></g><g fill="#ffffff" fill-opacity="1"><g transform="translate(132.00718, 198.402042)"><g><path d="M 9.890625 0 L 3.703125 0 L 3.703125 -33.203125 L 9.890625 -33.203125 Z M 9.890625 0 "/></g></g></g><g fill="#ffffff" fill-opacity="1"><g transform="translate(145.622346, 198.402042)"><g><path d="M 31.0625 -16.640625 L 31.0625 -3.21875 C 29.382812 -1.976562 27.59375 -1.066406 25.6875 -0.484375 C 23.78125 0.0859375 21.738281 0.375 19.5625 0.375 C 16.851562 0.375 14.398438 -0.046875 12.203125 -0.890625 C 10.003906 -1.734375 8.128906 -2.90625 6.578125 -4.40625 C 5.023438 -5.90625 3.828125 -7.695312 2.984375 -9.78125 C 2.140625 -11.863281 1.71875 -14.132812 1.71875 -16.59375 C 1.71875 -19.09375 2.125 -21.382812 2.9375 -23.46875 C 3.75 -25.550781 4.898438 -27.34375 6.390625 -28.84375 C 7.890625 -30.34375 9.703125 -31.503906 11.828125 -32.328125 C 13.953125 -33.148438 16.335938 -33.5625 18.984375 -33.5625 C 20.335938 -33.5625 21.597656 -33.453125 22.765625 -33.234375 C 23.929688 -33.023438 25.015625 -32.734375 26.015625 -32.359375 C 27.023438 -31.984375 27.941406 -31.523438 28.765625 -30.984375 C 29.597656 -30.453125 30.359375 -29.867188 31.046875 -29.234375 L 29.28125 -26.421875 C 29 -25.984375 28.632812 -25.710938 28.1875 -25.609375 C 27.75 -25.515625 27.269531 -25.628906 26.75 -25.953125 C 26.238281 -26.234375 25.726562 -26.519531 25.21875 -26.8125 C 24.71875 -27.101562 24.15625 -27.351562 23.53125 -27.5625 C 22.914062 -27.78125 22.222656 -27.957031 21.453125 -28.09375 C 20.679688 -28.238281 19.789062 -28.3125 18.78125 -28.3125 C 17.144531 -28.3125 15.664062 -28.035156 14.34375 -27.484375 C 13.019531 -26.929688 11.890625 -26.140625 10.953125 -25.109375 C 10.015625 -24.085938 9.289062 -22.859375 8.78125 -21.421875 C 8.28125 -19.984375 8.03125 -18.375 8.03125 -16.59375 C 8.03125 -14.695312 8.300781 -13.003906 8.84375 -11.515625 C 9.394531 -10.023438 10.160156 -8.757812 11.140625 -7.71875 C 12.128906 -6.6875 13.320312 -5.898438 14.71875 -5.359375 C 16.113281 -4.816406 17.664062 -4.546875 19.375 -4.546875 C 20.601562 -4.546875 21.695312 -4.675781 22.65625 -4.9375 C 23.625 -5.195312 24.566406 -5.550781 25.484375 -6 L 25.484375 -12.015625 L 21.3125 -12.015625 C 20.90625 -12.015625 20.59375 -12.125 20.375 -12.34375 C 20.15625 -12.5625 20.046875 -12.832031 20.046875 -13.15625 L 20.046875 -16.640625 Z M 31.0625 -16.640625 "/></g></g></g><g fill="#ffffff" fill-opacity="1"><g transform="translate(178.959996, 198.402042)"><g><path d="M 31.6875 -33.203125 L 31.6875 0 L 25.484375 0 L 25.484375 -14.515625 L 9.890625 -14.515625 L 9.890625 0 L 3.703125 0 L 3.703125 -33.203125 L 9.890625 -33.203125 L 9.890625 -18.921875 L 25.484375 -18.921875 L 25.484375 -33.203125 Z M 31.6875 -33.203125 "/></g></g></g><g fill="#ffffff" fill-opacity="1"><g transform="translate(214.341075, 198.402042)"><g/></g></g><g fill="#ffffff" fill-opacity="1"><g transform="translate(225.499542, 198.402042)"><g><path d="M 23.140625 -5.09375 L 23.140625 0 L 3.703125 0 L 3.703125 -33.203125 L 9.875 -33.203125 L 9.875 -5.09375 Z M 23.140625 -5.09375 "/></g></g></g><g fill="#ffffff" fill-opacity="1"><g transform="translate(249.354789, 198.402042)"><g><path d="M 9.890625 0 L 3.703125 0 L 3.703125 -33.203125 L 9.890625 -33.203125 Z M 9.890625 0 "/></g></g></g><g fill="#ffffff" fill-opacity="1"><g transform="translate(262.969954, 198.402042)"><g><path d="M 9.890625 -28.28125 L 9.890625 -18.453125 L 22.34375 -18.453125 L 22.34375 -13.53125 L 9.890625 -13.53125 L 9.890625 0 L 3.703125 0 L 3.703125 -33.203125 L 24.640625 -33.203125 L 24.640625 -28.28125 Z M 9.890625 -28.28125 "/></g></g></g><g fill="#ffffff" fill-opacity="1"><g transform="translate(288.960463, 198.402042)"><g><path d="M 9.890625 -28.28125 L 9.890625 -19.078125 L 21.515625 -19.078125 L 21.515625 -14.328125 L 9.890625 -14.328125 L 9.890625 -4.9375 L 24.640625 -4.9375 L 24.640625 0 L 3.703125 0 L 3.703125 -33.203125 L 24.640625 -33.203125 L 24.640625 -28.28125 Z M 9.890625 -28.28125 "/></g></g></g></svg>