<svg xmlns="http://www.w3.org/2000/svg" xmlns:xlink="http://www.w3.org/1999/xlink" width="550" zoomAndPan="magnify" viewBox="0 0 412.5 308.250004" height="411" preserveAspectRatio="xMidYMid meet" version="1.0"><defs><g/><clipPath id="258477519e"><path d="M 0.25 0 L 411.75 0 L 411.75 307.5 L 0.25 307.5 Z M 0.25 0 " clip-rule="nonzero"/></clipPath></defs><g clip-path="url(#258477519e)"><path fill="#ffffff" d="M 0.25 0 L 411.75 0 L 411.75 307.5 L 0.25 307.5 Z M 0.25 0 " fill-opacity="1" fill-rule="nonzero"/><path fill="#1b6178" d="M 0.25 0 L 411.75 0 L 411.75 307.5 L 0.25 307.5 Z M 0.25 0 " fill-opacity="1" fill-rule="nonzero"/></g><g fill="#ffffff" fill-opacity="1"><g transform="translate(112.029249, 181.059534)"><g><path d="M 18.59375 -10.53125 L 36.46875 -10.53125 L 36.46875 0 L 4.953125 0 L 4.953125 -56.015625 L 18.59375 -56.015625 Z M 18.59375 -10.53125 "/></g></g></g><g fill="#ffffff" fill-opacity="1"><g transform="translate(150.092934, 181.059534)"><g><path d="M 48.921875 -44.53125 L 48.921875 0 L 35.265625 0 L 35.265625 -6.0625 C 33.890625 -4.09375 32.015625 -2.507812 29.640625 -1.3125 C 27.273438 -0.113281 24.65625 0.484375 21.78125 0.484375 C 18.375 0.484375 15.367188 -0.269531 12.765625 -1.78125 C 10.160156 -3.300781 8.140625 -5.5 6.703125 -8.375 C 5.265625 -11.25 4.546875 -14.628906 4.546875 -18.515625 L 4.546875 -44.53125 L 18.109375 -44.53125 L 18.109375 -20.34375 C 18.109375 -17.363281 18.878906 -15.050781 20.421875 -13.40625 C 21.960938 -11.757812 24.039062 -10.9375 26.65625 -10.9375 C 29.3125 -10.9375 31.410156 -11.757812 32.953125 -13.40625 C 34.492188 -15.050781 35.265625 -17.363281 35.265625 -20.34375 L 35.265625 -44.53125 Z M 48.921875 -44.53125 "/></g></g></g><g fill="#ffffff" fill-opacity="1"><g transform="translate(203.876839, 181.059534)"><g><path d="M 31.28125 0 L 22.734375 -12.375 L 15.5625 0 L 0.796875 0 L 15.484375 -22.734375 L 0.40625 -44.53125 L 15.71875 -44.53125 L 24.265625 -32.234375 L 31.4375 -44.53125 L 46.203125 -44.53125 L 31.28125 -22.109375 L 46.59375 0 Z M 31.28125 0 "/></g></g></g><g fill="#ffffff" fill-opacity="1"><g transform="translate(250.798112, 181.059534)"><g><path d="M 46.921875 -22.984375 C 46.921875 -21.703125 46.84375 -20.367188 46.6875 -18.984375 L 15.796875 -18.984375 C 16.015625 -16.222656 16.90625 -14.109375 18.46875 -12.640625 C 20.039062 -11.179688 21.972656 -10.453125 24.265625 -10.453125 C 27.660156 -10.453125 30.023438 -11.890625 31.359375 -14.765625 L 45.890625 -14.765625 C 45.140625 -11.835938 43.789062 -9.203125 41.84375 -6.859375 C 39.90625 -4.515625 37.472656 -2.675781 34.546875 -1.34375 C 31.617188 -0.0195312 28.347656 0.640625 24.734375 0.640625 C 20.367188 0.640625 16.484375 -0.289062 13.078125 -2.15625 C 9.679688 -4.019531 7.023438 -6.679688 5.109375 -10.140625 C 3.191406 -13.597656 2.234375 -17.640625 2.234375 -22.265625 C 2.234375 -26.890625 3.175781 -30.929688 5.0625 -34.390625 C 6.957031 -37.847656 9.601562 -40.507812 13 -42.375 C 16.40625 -44.238281 20.316406 -45.171875 24.734375 -45.171875 C 29.046875 -45.171875 32.875 -44.265625 36.21875 -42.453125 C 39.570312 -40.640625 42.191406 -38.054688 44.078125 -34.703125 C 45.972656 -31.359375 46.921875 -27.453125 46.921875 -22.984375 Z M 32.953125 -26.578125 C 32.953125 -28.910156 32.15625 -30.769531 30.5625 -32.15625 C 28.96875 -33.539062 26.972656 -34.234375 24.578125 -34.234375 C 22.285156 -34.234375 20.351562 -33.566406 18.78125 -32.234375 C 17.21875 -30.910156 16.25 -29.023438 15.875 -26.578125 Z M 32.953125 -26.578125 "/></g></g></g></svg>